<svg xmlns="http://www.w3.org/2000/svg" width="760" height="503" viewBox="0 0 760 503" font-family="ui-monospace, 'SF Mono', 'JetBrains Mono', Menlo, Consolas, monospace">

<defs>
  <linearGradient id="cardBg" x1="0" y1="0" x2="0" y2="1">
    <stop offset="0%" stop-color="#170a0b"/>
    <stop offset="100%" stop-color="#0a0405"/>
  </linearGradient>
  <radialGradient id="avatarGlow" cx="50%" cy="35%" r="65%">
    <stop offset="0%" stop-color="#ff2d3f" stop-opacity="0.22"/>
    <stop offset="100%" stop-color="#ff2d3f" stop-opacity="0"/>
  </radialGradient>
  <linearGradient id="scanGrad" x1="0" y1="0" x2="1" y2="0">
    <stop offset="0%" stop-color="#ff2d3f" stop-opacity="0"/>
    <stop offset="50%" stop-color="#ff2d3f" stop-opacity="1"/>
    <stop offset="100%" stop-color="#ff2d3f" stop-opacity="0"/>
  </linearGradient>
  <clipPath id="cardClip">
    <rect x="1" y="1" width="758" height="501" rx="14"/>
  </clipPath>
  <clipPath id="avatarClip">
    <rect x="1" y="34" width="219" height="439"/>
  </clipPath>
</defs>

<style>
.scanroot text { user-select: none; }
.cardjitter { animation: cardjitter 4.5s infinite; transform-origin: 380.0px 251.5px; }
.cardflash  { animation: cardflash 4.5s infinite; }
@keyframes cardjitter {
  0%, 88%, 100% { transform: translate(0,0); }
  89%   { transform: translate(1.4px,-1px); }
  90.5% { transform: translate(-1.4px,1px); }
  92%   { transform: translate(0,0); }
}
@keyframes cardflash {
  0%, 88%, 100% { opacity: 0; }
  89%, 91% { opacity: 1; }
  93% { opacity: 0; }
}
.pulse { animation: pulse 1.6s ease-in-out infinite; }
@keyframes pulse { 0%,100% { opacity: 1; } 50% { opacity: 0.25; } }
.sweepbar { animation: sweep 3.2s linear infinite; }
@keyframes sweep {
  0%   { transform: translateY(-16px); opacity: 0; }
  8%   { opacity: 1; }
  92%  { opacity: 1; }
  100% { transform: translateY(455px); opacity: 0; }
}
.gcyan, .gmag { pointer-events: none; }
.gcyan { fill: #00e5ff; animation: glitchA 4.5s infinite; }
.gmag  { fill: #ff33c9; animation: glitchB 4.5s infinite; }
@keyframes glitchA {
  0%, 88%, 100% { opacity: 0; transform: translate(0,0); }
  89%   { opacity: 0.85; transform: translate(-2.5px,-1px); }
  90.5% { opacity: 0.85; transform: translate(2.5px,1px); }
  92%   { opacity: 0; transform: translate(0,0); }
}
@keyframes glitchB {
  0%, 88%, 100% { opacity: 0; transform: translate(0,0); }
  89%   { opacity: 0.85; transform: translate(2.5px,1px); }
  90.5% { opacity: 0.85; transform: translate(-2.5px,-1px); }
  92%   { opacity: 0; transform: translate(0,0); }
}
.blinkcursor { animation: blink 0.9s steps(1) infinite; }
@keyframes blink { 0%,49% { opacity: 1; } 50%,100% { opacity: 0; } }
.flickerA { animation: flkA 1.4s steps(1) infinite; }
.flickerB { animation: flkB 1.4s steps(1) infinite; }
.flickerLeak { animation: flkLeak 6s steps(1) infinite; }
@keyframes flkA { 0%,44% { opacity: 1; } 45%,100% { opacity: 0; } }
@keyframes flkB { 0%,44% { opacity: 0; } 45%,94% { opacity: 1; } 95%,100% { opacity: 0; } }
@keyframes flkLeak { 0%,89% { opacity: 0; } 90%,95% { opacity: 1; } 96%,100% { opacity: 0; } }


.line0 { animation: reveal0 16.0s infinite; }
@keyframes reveal0 {
  0% { opacity: 0; }
  3.125% { opacity: 0; }
  5.0% { opacity: 1; }
  78.0% { opacity: 1; }
  90.0% { opacity: 0; }
  100% { opacity: 0; }
}

.line1 { animation: reveal1 16.0s infinite; }
@keyframes reveal1 {
  0% { opacity: 0; }
  5.493% { opacity: 0; }
  7.368% { opacity: 1; }
  78.0% { opacity: 1; }
  90.0% { opacity: 0; }
  100% { opacity: 0; }
}

.line2 { animation: reveal2 16.0s infinite; }
@keyframes reveal2 {
  0% { opacity: 0; }
  7.862% { opacity: 0; }
  9.737% { opacity: 1; }
  78.0% { opacity: 1; }
  90.0% { opacity: 0; }
  100% { opacity: 0; }
}

.line3 { animation: reveal3 16.0s infinite; }
@keyframes reveal3 {
  0% { opacity: 0; }
  10.23% { opacity: 0; }
  12.105% { opacity: 1; }
  78.0% { opacity: 1; }
  90.0% { opacity: 0; }
  100% { opacity: 0; }
}

.line4 { animation: reveal4 16.0s infinite; }
@keyframes reveal4 {
  0% { opacity: 0; }
  12.599% { opacity: 0; }
  14.474% { opacity: 1; }
  78.0% { opacity: 1; }
  90.0% { opacity: 0; }
  100% { opacity: 0; }
}

.line5 { animation: reveal5 16.0s infinite; }
@keyframes reveal5 {
  0% { opacity: 0; }
  14.967% { opacity: 0; }
  16.842% { opacity: 1; }
  78.0% { opacity: 1; }
  90.0% { opacity: 0; }
  100% { opacity: 0; }
}

.line6 { animation: reveal6 16.0s infinite; }
@keyframes reveal6 {
  0% { opacity: 0; }
  17.336% { opacity: 0; }
  19.211% { opacity: 1; }
  78.0% { opacity: 1; }
  90.0% { opacity: 0; }
  100% { opacity: 0; }
}

.line7 { animation: reveal7 16.0s infinite; }
@keyframes reveal7 {
  0% { opacity: 0; }
  19.704% { opacity: 0; }
  21.579% { opacity: 1; }
  78.0% { opacity: 1; }
  90.0% { opacity: 0; }
  100% { opacity: 0; }
}

.line8 { animation: reveal8 16.0s infinite; }
@keyframes reveal8 {
  0% { opacity: 0; }
  22.072% { opacity: 0; }
  23.947% { opacity: 1; }
  78.0% { opacity: 1; }
  90.0% { opacity: 0; }
  100% { opacity: 0; }
}

.line9 { animation: reveal9 16.0s infinite; }
@keyframes reveal9 {
  0% { opacity: 0; }
  24.441% { opacity: 0; }
  26.316% { opacity: 1; }
  78.0% { opacity: 1; }
  90.0% { opacity: 0; }
  100% { opacity: 0; }
}

.line10 { animation: reveal10 16.0s infinite; }
@keyframes reveal10 {
  0% { opacity: 0; }
  26.809% { opacity: 0; }
  28.684% { opacity: 1; }
  78.0% { opacity: 1; }
  90.0% { opacity: 0; }
  100% { opacity: 0; }
}

.line11 { animation: reveal11 16.0s infinite; }
@keyframes reveal11 {
  0% { opacity: 0; }
  29.178% { opacity: 0; }
  31.053% { opacity: 1; }
  78.0% { opacity: 1; }
  90.0% { opacity: 0; }
  100% { opacity: 0; }
}

.line12 { animation: reveal12 16.0s infinite; }
@keyframes reveal12 {
  0% { opacity: 0; }
  31.546% { opacity: 0; }
  33.421% { opacity: 1; }
  78.0% { opacity: 1; }
  90.0% { opacity: 0; }
  100% { opacity: 0; }
}

.line13 { animation: reveal13 16.0s infinite; }
@keyframes reveal13 {
  0% { opacity: 0; }
  33.914% { opacity: 0; }
  35.789% { opacity: 1; }
  78.0% { opacity: 1; }
  90.0% { opacity: 0; }
  100% { opacity: 0; }
}

.line14 { animation: reveal14 16.0s infinite; }
@keyframes reveal14 {
  0% { opacity: 0; }
  36.283% { opacity: 0; }
  38.158% { opacity: 1; }
  78.0% { opacity: 1; }
  90.0% { opacity: 0; }
  100% { opacity: 0; }
}

.line15 { animation: reveal15 16.0s infinite; }
@keyframes reveal15 {
  0% { opacity: 0; }
  38.651% { opacity: 0; }
  40.526% { opacity: 1; }
  78.0% { opacity: 1; }
  90.0% { opacity: 0; }
  100% { opacity: 0; }
}

.line16 { animation: reveal16 16.0s infinite; }
@keyframes reveal16 {
  0% { opacity: 0; }
  41.02% { opacity: 0; }
  42.895% { opacity: 1; }
  78.0% { opacity: 1; }
  90.0% { opacity: 0; }
  100% { opacity: 0; }
}

.line17 { animation: reveal17 16.0s infinite; }
@keyframes reveal17 {
  0% { opacity: 0; }
  43.388% { opacity: 0; }
  45.263% { opacity: 1; }
  78.0% { opacity: 1; }
  90.0% { opacity: 0; }
  100% { opacity: 0; }
}

.line18 { animation: reveal18 16.0s infinite; }
@keyframes reveal18 {
  0% { opacity: 0; }
  45.757% { opacity: 0; }
  47.632% { opacity: 1; }
  78.0% { opacity: 1; }
  90.0% { opacity: 0; }
  100% { opacity: 0; }
}

.line19 { animation: reveal19 16.0s infinite; }
@keyframes reveal19 {
  0% { opacity: 0; }
  48.125% { opacity: 0; }
  50.0% { opacity: 1; }
  78.0% { opacity: 1; }
  90.0% { opacity: 0; }
  100% { opacity: 0; }
}

.footerline { animation: revealFooter 16.0s infinite; }
@keyframes revealFooter {
  0% { opacity: 0; }
  50.0% { opacity: 0; }
  51.875% { opacity: 1; }
  78.0% { opacity: 1; }
  90.0% { opacity: 0; }
  100% { opacity: 0; }
}
</style>
<g class="cardjitter">
<rect x="1" y="1" width="758" height="501" rx="14" fill="url(#cardBg)" stroke="#3a1116" stroke-width="1"/>
<rect class="cardflash" x="1" y="1" width="758" height="501" rx="14" fill="#ff2d3f" opacity="0" pointer-events="none"/>
<line x1="0" y1="34" x2="760" y2="34" stroke="#3a1116"/>
<circle cx="18" cy="17.0" r="4.5" fill="#7a1a22"/>
<circle cx="34" cy="17.0" r="4.5" fill="#7a1a22"/>
<circle cx="50" cy="17.0" r="4.5" fill="#7a1a22"/>
<text x="66" y="21.0" font-size="12" fill="#93676b">kunal-dangi/README.md</text>
<text class="gcyan" x="66" y="21.0" font-size="12">kunal-dangi/README.md</text>
<text class="gmag" x="66" y="21.0" font-size="12">kunal-dangi/README.md</text>
<circle class="pulse" cx="676" cy="17.0" r="3" fill="#ff2d3f"/>
<text x="686" y="21.0" font-size="9.5" letter-spacing="0.08em" fill="#ff2d3f">LIVE SCAN</text>
<g clip-path="url(#avatarClip)">
<rect x="1" y="34" width="219" height="439" fill="#0e0506"/>
<rect x="1" y="34" width="219" height="439" fill="url(#avatarGlow)"/>
<line x1="1" y1="34" x2="219" y2="34" stroke="#ff2d3f" stroke-opacity="0.035"/>
<line x1="1" y1="37" x2="219" y2="37" stroke="#ff2d3f" stroke-opacity="0.035"/>
<line x1="1" y1="40" x2="219" y2="40" stroke="#ff2d3f" stroke-opacity="0.035"/>
<line x1="1" y1="43" x2="219" y2="43" stroke="#ff2d3f" stroke-opacity="0.035"/>
<line x1="1" y1="46" x2="219" y2="46" stroke="#ff2d3f" stroke-opacity="0.035"/>
<line x1="1" y1="49" x2="219" y2="49" stroke="#ff2d3f" stroke-opacity="0.035"/>
<line x1="1" y1="52" x2="219" y2="52" stroke="#ff2d3f" stroke-opacity="0.035"/>
<line x1="1" y1="55" x2="219" y2="55" stroke="#ff2d3f" stroke-opacity="0.035"/>
<line x1="1" y1="58" x2="219" y2="58" stroke="#ff2d3f" stroke-opacity="0.035"/>
<line x1="1" y1="61" x2="219" y2="61" stroke="#ff2d3f" stroke-opacity="0.035"/>
<line x1="1" y1="64" x2="219" y2="64" stroke="#ff2d3f" stroke-opacity="0.035"/>
<line x1="1" y1="67" x2="219" y2="67" stroke="#ff2d3f" stroke-opacity="0.035"/>
<line x1="1" y1="70" x2="219" y2="70" stroke="#ff2d3f" stroke-opacity="0.035"/>
<line x1="1" y1="73" x2="219" y2="73" stroke="#ff2d3f" stroke-opacity="0.035"/>
<line x1="1" y1="76" x2="219" y2="76" stroke="#ff2d3f" stroke-opacity="0.035"/>
<line x1="1" y1="79" x2="219" y2="79" stroke="#ff2d3f" stroke-opacity="0.035"/>
<line x1="1" y1="82" x2="219" y2="82" stroke="#ff2d3f" stroke-opacity="0.035"/>
<line x1="1" y1="85" x2="219" y2="85" stroke="#ff2d3f" stroke-opacity="0.035"/>
<line x1="1" y1="88" x2="219" y2="88" stroke="#ff2d3f" stroke-opacity="0.035"/>
<line x1="1" y1="91" x2="219" y2="91" stroke="#ff2d3f" stroke-opacity="0.035"/>
<line x1="1" y1="94" x2="219" y2="94" stroke="#ff2d3f" stroke-opacity="0.035"/>
<line x1="1" y1="97" x2="219" y2="97" stroke="#ff2d3f" stroke-opacity="0.035"/>
<line x1="1" y1="100" x2="219" y2="100" stroke="#ff2d3f" stroke-opacity="0.035"/>
<line x1="1" y1="103" x2="219" y2="103" stroke="#ff2d3f" stroke-opacity="0.035"/>
<line x1="1" y1="106" x2="219" y2="106" stroke="#ff2d3f" stroke-opacity="0.035"/>
<line x1="1" y1="109" x2="219" y2="109" stroke="#ff2d3f" stroke-opacity="0.035"/>
<line x1="1" y1="112" x2="219" y2="112" stroke="#ff2d3f" stroke-opacity="0.035"/>
<line x1="1" y1="115" x2="219" y2="115" stroke="#ff2d3f" stroke-opacity="0.035"/>
<line x1="1" y1="118" x2="219" y2="118" stroke="#ff2d3f" stroke-opacity="0.035"/>
<line x1="1" y1="121" x2="219" y2="121" stroke="#ff2d3f" stroke-opacity="0.035"/>
<line x1="1" y1="124" x2="219" y2="124" stroke="#ff2d3f" stroke-opacity="0.035"/>
<line x1="1" y1="127" x2="219" y2="127" stroke="#ff2d3f" stroke-opacity="0.035"/>
<line x1="1" y1="130" x2="219" y2="130" stroke="#ff2d3f" stroke-opacity="0.035"/>
<line x1="1" y1="133" x2="219" y2="133" stroke="#ff2d3f" stroke-opacity="0.035"/>
<line x1="1" y1="136" x2="219" y2="136" stroke="#ff2d3f" stroke-opacity="0.035"/>
<line x1="1" y1="139" x2="219" y2="139" stroke="#ff2d3f" stroke-opacity="0.035"/>
<line x1="1" y1="142" x2="219" y2="142" stroke="#ff2d3f" stroke-opacity="0.035"/>
<line x1="1" y1="145" x2="219" y2="145" stroke="#ff2d3f" stroke-opacity="0.035"/>
<line x1="1" y1="148" x2="219" y2="148" stroke="#ff2d3f" stroke-opacity="0.035"/>
<line x1="1" y1="151" x2="219" y2="151" stroke="#ff2d3f" stroke-opacity="0.035"/>
<line x1="1" y1="154" x2="219" y2="154" stroke="#ff2d3f" stroke-opacity="0.035"/>
<line x1="1" y1="157" x2="219" y2="157" stroke="#ff2d3f" stroke-opacity="0.035"/>
<line x1="1" y1="160" x2="219" y2="160" stroke="#ff2d3f" stroke-opacity="0.035"/>
<line x1="1" y1="163" x2="219" y2="163" stroke="#ff2d3f" stroke-opacity="0.035"/>
<line x1="1" y1="166" x2="219" y2="166" stroke="#ff2d3f" stroke-opacity="0.035"/>
<line x1="1" y1="169" x2="219" y2="169" stroke="#ff2d3f" stroke-opacity="0.035"/>
<line x1="1" y1="172" x2="219" y2="172" stroke="#ff2d3f" stroke-opacity="0.035"/>
<line x1="1" y1="175" x2="219" y2="175" stroke="#ff2d3f" stroke-opacity="0.035"/>
<line x1="1" y1="178" x2="219" y2="178" stroke="#ff2d3f" stroke-opacity="0.035"/>
<line x1="1" y1="181" x2="219" y2="181" stroke="#ff2d3f" stroke-opacity="0.035"/>
<line x1="1" y1="184" x2="219" y2="184" stroke="#ff2d3f" stroke-opacity="0.035"/>
<line x1="1" y1="187" x2="219" y2="187" stroke="#ff2d3f" stroke-opacity="0.035"/>
<line x1="1" y1="190" x2="219" y2="190" stroke="#ff2d3f" stroke-opacity="0.035"/>
<line x1="1" y1="193" x2="219" y2="193" stroke="#ff2d3f" stroke-opacity="0.035"/>
<line x1="1" y1="196" x2="219" y2="196" stroke="#ff2d3f" stroke-opacity="0.035"/>
<line x1="1" y1="199" x2="219" y2="199" stroke="#ff2d3f" stroke-opacity="0.035"/>
<line x1="1" y1="202" x2="219" y2="202" stroke="#ff2d3f" stroke-opacity="0.035"/>
<line x1="1" y1="205" x2="219" y2="205" stroke="#ff2d3f" stroke-opacity="0.035"/>
<line x1="1" y1="208" x2="219" y2="208" stroke="#ff2d3f" stroke-opacity="0.035"/>
<line x1="1" y1="211" x2="219" y2="211" stroke="#ff2d3f" stroke-opacity="0.035"/>
<line x1="1" y1="214" x2="219" y2="214" stroke="#ff2d3f" stroke-opacity="0.035"/>
<line x1="1" y1="217" x2="219" y2="217" stroke="#ff2d3f" stroke-opacity="0.035"/>
<line x1="1" y1="220" x2="219" y2="220" stroke="#ff2d3f" stroke-opacity="0.035"/>
<line x1="1" y1="223" x2="219" y2="223" stroke="#ff2d3f" stroke-opacity="0.035"/>
<line x1="1" y1="226" x2="219" y2="226" stroke="#ff2d3f" stroke-opacity="0.035"/>
<line x1="1" y1="229" x2="219" y2="229" stroke="#ff2d3f" stroke-opacity="0.035"/>
<line x1="1" y1="232" x2="219" y2="232" stroke="#ff2d3f" stroke-opacity="0.035"/>
<line x1="1" y1="235" x2="219" y2="235" stroke="#ff2d3f" stroke-opacity="0.035"/>
<line x1="1" y1="238" x2="219" y2="238" stroke="#ff2d3f" stroke-opacity="0.035"/>
<line x1="1" y1="241" x2="219" y2="241" stroke="#ff2d3f" stroke-opacity="0.035"/>
<line x1="1" y1="244" x2="219" y2="244" stroke="#ff2d3f" stroke-opacity="0.035"/>
<line x1="1" y1="247" x2="219" y2="247" stroke="#ff2d3f" stroke-opacity="0.035"/>
<line x1="1" y1="250" x2="219" y2="250" stroke="#ff2d3f" stroke-opacity="0.035"/>
<line x1="1" y1="253" x2="219" y2="253" stroke="#ff2d3f" stroke-opacity="0.035"/>
<line x1="1" y1="256" x2="219" y2="256" stroke="#ff2d3f" stroke-opacity="0.035"/>
<line x1="1" y1="259" x2="219" y2="259" stroke="#ff2d3f" stroke-opacity="0.035"/>
<line x1="1" y1="262" x2="219" y2="262" stroke="#ff2d3f" stroke-opacity="0.035"/>
<line x1="1" y1="265" x2="219" y2="265" stroke="#ff2d3f" stroke-opacity="0.035"/>
<line x1="1" y1="268" x2="219" y2="268" stroke="#ff2d3f" stroke-opacity="0.035"/>
<line x1="1" y1="271" x2="219" y2="271" stroke="#ff2d3f" stroke-opacity="0.035"/>
<line x1="1" y1="274" x2="219" y2="274" stroke="#ff2d3f" stroke-opacity="0.035"/>
<line x1="1" y1="277" x2="219" y2="277" stroke="#ff2d3f" stroke-opacity="0.035"/>
<line x1="1" y1="280" x2="219" y2="280" stroke="#ff2d3f" stroke-opacity="0.035"/>
<line x1="1" y1="283" x2="219" y2="283" stroke="#ff2d3f" stroke-opacity="0.035"/>
<line x1="1" y1="286" x2="219" y2="286" stroke="#ff2d3f" stroke-opacity="0.035"/>
<line x1="1" y1="289" x2="219" y2="289" stroke="#ff2d3f" stroke-opacity="0.035"/>
<line x1="1" y1="292" x2="219" y2="292" stroke="#ff2d3f" stroke-opacity="0.035"/>
<line x1="1" y1="295" x2="219" y2="295" stroke="#ff2d3f" stroke-opacity="0.035"/>
<line x1="1" y1="298" x2="219" y2="298" stroke="#ff2d3f" stroke-opacity="0.035"/>
<line x1="1" y1="301" x2="219" y2="301" stroke="#ff2d3f" stroke-opacity="0.035"/>
<line x1="1" y1="304" x2="219" y2="304" stroke="#ff2d3f" stroke-opacity="0.035"/>
<line x1="1" y1="307" x2="219" y2="307" stroke="#ff2d3f" stroke-opacity="0.035"/>
<line x1="1" y1="310" x2="219" y2="310" stroke="#ff2d3f" stroke-opacity="0.035"/>
<line x1="1" y1="313" x2="219" y2="313" stroke="#ff2d3f" stroke-opacity="0.035"/>
<line x1="1" y1="316" x2="219" y2="316" stroke="#ff2d3f" stroke-opacity="0.035"/>
<line x1="1" y1="319" x2="219" y2="319" stroke="#ff2d3f" stroke-opacity="0.035"/>
<line x1="1" y1="322" x2="219" y2="322" stroke="#ff2d3f" stroke-opacity="0.035"/>
<line x1="1" y1="325" x2="219" y2="325" stroke="#ff2d3f" stroke-opacity="0.035"/>
<line x1="1" y1="328" x2="219" y2="328" stroke="#ff2d3f" stroke-opacity="0.035"/>
<line x1="1" y1="331" x2="219" y2="331" stroke="#ff2d3f" stroke-opacity="0.035"/>
<line x1="1" y1="334" x2="219" y2="334" stroke="#ff2d3f" stroke-opacity="0.035"/>
<line x1="1" y1="337" x2="219" y2="337" stroke="#ff2d3f" stroke-opacity="0.035"/>
<line x1="1" y1="340" x2="219" y2="340" stroke="#ff2d3f" stroke-opacity="0.035"/>
<line x1="1" y1="343" x2="219" y2="343" stroke="#ff2d3f" stroke-opacity="0.035"/>
<line x1="1" y1="346" x2="219" y2="346" stroke="#ff2d3f" stroke-opacity="0.035"/>
<line x1="1" y1="349" x2="219" y2="349" stroke="#ff2d3f" stroke-opacity="0.035"/>
<line x1="1" y1="352" x2="219" y2="352" stroke="#ff2d3f" stroke-opacity="0.035"/>
<line x1="1" y1="355" x2="219" y2="355" stroke="#ff2d3f" stroke-opacity="0.035"/>
<line x1="1" y1="358" x2="219" y2="358" stroke="#ff2d3f" stroke-opacity="0.035"/>
<line x1="1" y1="361" x2="219" y2="361" stroke="#ff2d3f" stroke-opacity="0.035"/>
<line x1="1" y1="364" x2="219" y2="364" stroke="#ff2d3f" stroke-opacity="0.035"/>
<line x1="1" y1="367" x2="219" y2="367" stroke="#ff2d3f" stroke-opacity="0.035"/>
<line x1="1" y1="370" x2="219" y2="370" stroke="#ff2d3f" stroke-opacity="0.035"/>
<line x1="1" y1="373" x2="219" y2="373" stroke="#ff2d3f" stroke-opacity="0.035"/>
<line x1="1" y1="376" x2="219" y2="376" stroke="#ff2d3f" stroke-opacity="0.035"/>
<line x1="1" y1="379" x2="219" y2="379" stroke="#ff2d3f" stroke-opacity="0.035"/>
<line x1="1" y1="382" x2="219" y2="382" stroke="#ff2d3f" stroke-opacity="0.035"/>
<line x1="1" y1="385" x2="219" y2="385" stroke="#ff2d3f" stroke-opacity="0.035"/>
<line x1="1" y1="388" x2="219" y2="388" stroke="#ff2d3f" stroke-opacity="0.035"/>
<line x1="1" y1="391" x2="219" y2="391" stroke="#ff2d3f" stroke-opacity="0.035"/>
<line x1="1" y1="394" x2="219" y2="394" stroke="#ff2d3f" stroke-opacity="0.035"/>
<line x1="1" y1="397" x2="219" y2="397" stroke="#ff2d3f" stroke-opacity="0.035"/>
<line x1="1" y1="400" x2="219" y2="400" stroke="#ff2d3f" stroke-opacity="0.035"/>
<line x1="1" y1="403" x2="219" y2="403" stroke="#ff2d3f" stroke-opacity="0.035"/>
<line x1="1" y1="406" x2="219" y2="406" stroke="#ff2d3f" stroke-opacity="0.035"/>
<line x1="1" y1="409" x2="219" y2="409" stroke="#ff2d3f" stroke-opacity="0.035"/>
<line x1="1" y1="412" x2="219" y2="412" stroke="#ff2d3f" stroke-opacity="0.035"/>
<line x1="1" y1="415" x2="219" y2="415" stroke="#ff2d3f" stroke-opacity="0.035"/>
<line x1="1" y1="418" x2="219" y2="418" stroke="#ff2d3f" stroke-opacity="0.035"/>
<line x1="1" y1="421" x2="219" y2="421" stroke="#ff2d3f" stroke-opacity="0.035"/>
<line x1="1" y1="424" x2="219" y2="424" stroke="#ff2d3f" stroke-opacity="0.035"/>
<line x1="1" y1="427" x2="219" y2="427" stroke="#ff2d3f" stroke-opacity="0.035"/>
<line x1="1" y1="430" x2="219" y2="430" stroke="#ff2d3f" stroke-opacity="0.035"/>
<line x1="1" y1="433" x2="219" y2="433" stroke="#ff2d3f" stroke-opacity="0.035"/>
<line x1="1" y1="436" x2="219" y2="436" stroke="#ff2d3f" stroke-opacity="0.035"/>
<line x1="1" y1="439" x2="219" y2="439" stroke="#ff2d3f" stroke-opacity="0.035"/>
<line x1="1" y1="442" x2="219" y2="442" stroke="#ff2d3f" stroke-opacity="0.035"/>
<line x1="1" y1="445" x2="219" y2="445" stroke="#ff2d3f" stroke-opacity="0.035"/>
<line x1="1" y1="448" x2="219" y2="448" stroke="#ff2d3f" stroke-opacity="0.035"/>
<line x1="1" y1="451" x2="219" y2="451" stroke="#ff2d3f" stroke-opacity="0.035"/>
<line x1="1" y1="454" x2="219" y2="454" stroke="#ff2d3f" stroke-opacity="0.035"/>
<line x1="1" y1="457" x2="219" y2="457" stroke="#ff2d3f" stroke-opacity="0.035"/>
<line x1="1" y1="460" x2="219" y2="460" stroke="#ff2d3f" stroke-opacity="0.035"/>
<line x1="1" y1="463" x2="219" y2="463" stroke="#ff2d3f" stroke-opacity="0.035"/>
<line x1="1" y1="466" x2="219" y2="466" stroke="#ff2d3f" stroke-opacity="0.035"/>
<line x1="1" y1="469" x2="219" y2="469" stroke="#ff2d3f" stroke-opacity="0.035"/>
<line x1="1" y1="472" x2="219" y2="472" stroke="#ff2d3f" stroke-opacity="0.035"/>
<line x1="1" y1="34" x2="220" y2="34" stroke="#3a1116"/>
<text x="110.0" y="269.5" font-size="46" font-weight="600" letter-spacing="0.08em" fill="#ff2d3f" text-anchor="middle">KD</text>
<text class="gcyan" x="110.0" y="269.5" font-size="46" font-weight="600" letter-spacing="0.08em" text-anchor="middle">KD</text>
<text class="gmag" x="110.0" y="269.5" font-size="46" font-weight="600" letter-spacing="0.08em" text-anchor="middle">KD</text>
<g transform="translate(6,40)"><path d="M0,14 L0,0 L14,0" fill="none" stroke="#7a1a22" stroke-width="1.5"/></g>
<g transform="translate(200,40)"><path d="M0,0 L14,0 L14,14" fill="none" stroke="#7a1a22" stroke-width="1.5"/></g>
<g transform="translate(6,453)"><path d="M0,0 L0,14 L14,14" fill="none" stroke="#7a1a22" stroke-width="1.5"/></g>
<g transform="translate(200,453)"><path d="M14,0 L14,14 L0,14" fill="none" stroke="#7a1a22" stroke-width="1.5"/></g>
<rect class="sweepbar" x="1" y="34" width="219" height="2" fill="url(#scanGrad)"/>
<text x="110.0" y="459" font-size="9" letter-spacing="0.1em" fill="#93676b" text-anchor="middle">STATUS: <tspan fill="#ff2d3f">IN PROGRESS</tspan></text>
</g>
<line x1="220" y1="34" x2="220" y2="473" stroke="#3a1116"/>
<g class="line0">
<text x="240" y="55" font-size="13" fill="#93676b"><tspan fill="#ff2d3f">$ </tspan>scan --target=kunal-dangi --deep</text>
</g>
<g class="line1">
<text x="240" y="83" font-size="11" letter-spacing="0.1em" fill="#ffb454"><tspan fill="#7a1a22">// </tspan>IDENTITY</text>
</g>
<g class="line2">
<text x="240" y="102" font-size="13" fill="#ff2d3f">SUBJECT:</text>
<text x="390" y="102" font-size="13" fill="#ffeceb">Kunal Dangi</text>
</g>
<g class="line3">
<text x="240" y="121" font-size="13" fill="#ff2d3f">HANDLE:</text>
<text x="390" y="121" font-size="13" fill="#ffeceb">@kunal-dangi</text>
</g>
<g class="line4">
<text x="240" y="140" font-size="13" fill="#ff2d3f">ROLE:</text>
<text x="390" y="140" font-size="13" fill="#ffeceb">B.Tech IT Student</text>
</g>
<g class="line5">
<text x="240" y="159" font-size="13" fill="#ff2d3f">ORIGIN:</text>
<text x="390" y="159" font-size="13" fill="#ffeceb">India</text>
</g>
<g class="line6">
<text x="240" y="178" font-size="13" fill="#ff2d3f">EDUCATION:</text>
<text x="390" y="178" font-size="13" fill="#ffeceb">AIT Pune</text>
</g>
<g class="line7">
<text x="240" y="197" font-size="13" fill="#ff2d3f">STATUS:</text>
<text x="390" y="197" font-size="13" fill="#ffeceb">LEARNING  →  SWOC 2026  →  GSOC 2027</text>
</g>
<g class="line8">
<text x="240" y="225" font-size="11" letter-spacing="0.1em" fill="#ffb454"><tspan fill="#7a1a22">// </tspan>STACK</text>
</g>
<g class="line9">
<text x="240" y="244" font-size="13" fill="#ff2d3f">CORE_LANG:</text>
<text x="390" y="244" font-size="13" fill="#ffeceb">Python, C++, JavaScript</text>
</g>
<g class="line10">
<text x="240" y="263" font-size="13" fill="#ff2d3f">CORE_FRONTEND:</text>
<text x="390" y="263" font-size="13" fill="#ffeceb">React, Vite</text>
</g>
<g class="line11">
<text x="240" y="282" font-size="13" fill="#ff2d3f">CORE_BACKEND:</text>
<text x="390" y="282" font-size="13" fill="#ffeceb">FastAPI</text>
</g>
<g class="line12">
<text x="240" y="301" font-size="13" fill="#ff2d3f">CORE_DATABASE:</text>
<text x="390" y="301" font-size="13" fill="#93676b">🔒 </text>
<text class="flickerA" x="408" y="301" font-size="13" fill="#7a1a22" letter-spacing="0.03em">K9$&amp;!X_LP#0Z</text>
<text class="flickerB" x="408" y="301" font-size="13" fill="#7a1a22" letter-spacing="0.03em">Q?&lt;&gt;Z0#!*XM]=</text>
<text class="flickerLeak" x="408" y="301" font-size="13" fill="#ffb454" letter-spacing="0.03em">not started yet</text>
</g>
<g class="line13">
<text x="240" y="320" font-size="13" fill="#ff2d3f">CORE_INFRA:</text>
<text x="390" y="320" font-size="13" fill="#ffeceb">Git, GitHub, VS Code, macOS</text>
</g>
<g class="line14">
<text x="240" y="339" font-size="13" fill="#ff2d3f">CORE_ML:</text>
<text x="390" y="339" font-size="13" fill="#93676b">🔒 </text>
<text class="flickerA" x="408" y="339" font-size="13" fill="#7a1a22" letter-spacing="0.03em">K9$&amp;!X_LP#0Z</text>
<text class="flickerB" x="408" y="339" font-size="13" fill="#7a1a22" letter-spacing="0.03em">Q?&lt;&gt;Z0#!*XM]=</text>
<text class="flickerLeak" x="408" y="339" font-size="13" fill="#ffb454" letter-spacing="0.03em">self-learning, not deployed</text>
</g>
<g class="line15">
<text x="240" y="367" font-size="11" letter-spacing="0.1em" fill="#ffb454"><tspan fill="#7a1a22">// </tspan>CONTACT</text>
</g>
<g class="line16">
<text x="240" y="386" font-size="13" fill="#ff2d3f">GRID_GITHUB:</text>
<text x="390" y="386" font-size="13" fill="#ffeceb">github.com/kunal-dangi</text>
</g>
<g class="line17">
<text x="240" y="405" font-size="13" fill="#ff2d3f">GRID_MAIL:</text>
<text x="390" y="405" font-size="13" fill="#93676b">🔒 </text>
<text class="flickerA" x="408" y="405" font-size="13" fill="#7a1a22" letter-spacing="0.03em">K9$&amp;!X_LP#0Z</text>
<text class="flickerB" x="408" y="405" font-size="13" fill="#7a1a22" letter-spacing="0.03em">Q?&lt;&gt;Z0#!*XM]=</text>
<text class="flickerLeak" x="408" y="405" font-size="13" fill="#ffb454" letter-spacing="0.03em">not linked yet</text>
</g>
<g class="line18">
<text x="240" y="424" font-size="13" fill="#ff2d3f">GRID_LINKEDIN:</text>
<text x="390" y="424" font-size="13" fill="#93676b">🔒 </text>
<text class="flickerA" x="408" y="424" font-size="13" fill="#7a1a22" letter-spacing="0.03em">K9$&amp;!X_LP#0Z</text>
<text class="flickerB" x="408" y="424" font-size="13" fill="#7a1a22" letter-spacing="0.03em">Q?&lt;&gt;Z0#!*XM]=</text>
<text class="flickerLeak" x="408" y="424" font-size="13" fill="#ffb454" letter-spacing="0.03em">not linked yet</text>
</g>
<g class="line19">
<text x="240" y="443" font-size="13" fill="#93676b"><tspan fill="#ff2d3f">$ </tspan>scan complete — clearance: partial</text>
</g>
</g>
<line x1="0" y1="473" x2="760" y2="473" stroke="#3a1116"/>
<text x="18" y="491.0" font-size="10" fill="#ff2d3f">⏇ main</text>
<text x="70" y="491.0" font-size="10" fill="#93676b">| build: svg | auto-sync</text>
<text class="footerline" x="590" y="491.0" font-size="10" fill="#ffb454">◐ clearance: partial</text>
</svg>
